<svg version="1.1" id="Layer_1" xmlns="http://www.w3.org/2000/svg" xmlns:xlink="http://www.w3.org/1999/xlink" x="0px" y="0px"
	 width="100%" viewBox="0 0 1536 1024" enable-background="new 0 0 1536 1024" xml:space="preserve">
<path fill="#000000" opacity="1.000000" stroke="none" 
	d="
M1537.000000,531.000000 
	C1537.000000,695.639709 1537.000000,860.279480 1537.000000,1024.959595 
	C1025.110718,1024.959595 513.221497,1024.959595 1.000000,1024.959595 
	C1.000000,861.637451 1.000000,698.274658 1.428880,534.482544 
	C5.865335,534.371521 9.872910,534.689880 14.058329,535.399597 
	C20.152018,536.482300 26.067863,537.173645 32.359283,537.933350 
	C33.493233,537.950317 34.251606,537.898865 35.253086,537.914673 
	C35.657974,537.936096 35.819756,537.890198 36.410019,537.919067 
	C42.301998,538.676636 47.748062,539.691895 53.232281,539.979431 
	C69.198181,540.816650 85.178360,541.879150 101.154778,541.910339 
	C130.370224,541.967468 159.587570,541.388245 188.802689,540.972900 
	C194.213928,540.895935 199.618896,540.349121 205.025818,540.004333 
	C220.580276,539.012512 236.138443,538.073059 251.686646,536.990784 
	C259.178497,536.469238 266.672180,535.848633 274.127380,534.957703 
	C283.782318,533.803833 293.382507,532.191223 303.037994,531.042542 
	C312.906830,529.868469 322.807220,528.942322 332.705933,528.040833 
	C348.167450,526.632629 363.620728,525.013306 379.114380,524.130432 
	C386.805359,523.692200 394.575195,524.822876 402.315063,525.017029 
	C416.533905,525.373657 430.756927,525.562500 445.349915,526.019531 
	C459.406403,528.136902 473.073792,530.193115 486.781250,531.934021 
	C498.944824,533.478882 511.146515,534.734741 523.342896,536.007935 
	C539.775696,537.723633 556.190552,539.776306 572.667419,540.856750 
	C587.365601,541.820618 602.137573,541.659546 617.068359,542.401245 
	C628.907654,542.884705 640.555481,542.979126 652.203430,542.992920 
	C652.857300,542.993713 653.511963,542.330811 654.624268,541.989502 
	C675.116943,541.002014 695.169983,540.270874 715.179565,538.903992 
	C727.835022,538.039490 740.425781,536.226379 753.506592,534.912476 
	C762.267761,535.009766 770.567810,535.033264 779.080200,535.447998 
	C798.903564,535.906372 818.514587,535.983337 838.125732,535.999023 
	C838.795410,535.999512 839.465637,535.385193 840.595093,535.032471 
	C851.944946,534.673828 862.836487,534.374817 873.725159,533.994629 
	C881.124390,533.736328 888.522949,533.423828 895.915344,533.018066 
	C899.659790,532.812561 903.402527,532.447205 907.124084,531.979431 
	C917.255615,530.706116 927.378662,529.364197 937.498840,528.002930 
	C946.481201,526.794739 955.451721,525.498901 964.434021,524.289917 
	C970.381775,523.489380 976.323425,522.477905 982.301208,522.121338 
	C986.500122,521.870911 990.755432,522.564331 995.353394,523.013184 
	C995.969666,523.399048 996.191895,523.743896 996.470093,523.797302 
	C1012.161194,526.812256 1027.814819,530.054138 1043.568604,532.699707 
	C1052.682373,534.230103 1061.958252,534.795837 1071.570312,535.875610 
	C1075.156250,536.300293 1078.327515,536.710449 1081.510864,536.978088 
	C1092.935913,537.938477 1104.364990,538.850769 1116.245117,539.877930 
	C1119.446655,539.929749 1122.195435,539.884827 1125.413574,539.921387 
	C1143.262207,539.946594 1160.641479,539.890259 1178.483154,539.901794 
	C1186.185425,539.641785 1193.427612,539.358765 1200.664673,538.975952 
	C1212.488037,538.350647 1224.317139,537.788452 1236.124878,536.937012 
	C1241.135010,536.575684 1246.097412,535.550110 1251.541504,534.879333 
	C1264.109131,535.636414 1276.211670,536.439880 1288.325317,537.014038 
	C1298.355957,537.489441 1308.398071,537.753906 1318.437988,537.995605 
	C1324.244141,538.135437 1330.055786,538.044922 1336.078613,538.448608 
	C1356.520264,538.842407 1376.748535,538.845581 1397.441772,538.918091 
	C1404.480591,538.660095 1411.052856,538.296387 1417.628540,538.012695 
	C1433.585938,537.324280 1449.544312,536.661560 1465.503418,536.011536 
	C1474.062988,535.662903 1482.626953,535.416321 1491.184082,535.017883 
	C1496.091064,534.789429 1500.995850,534.432617 1505.888306,533.987061 
	C1516.263428,533.042297 1526.630005,532.001404 1537.000000,531.000000 
z"/>
<path fill="#000000" opacity="1.000000" stroke="none" 
	d="
M1.000000,490.000000 
	C1.000000,327.026794 1.000000,164.053574 1.000000,1.040179 
	C512.889099,1.040179 1024.778198,1.040179 1537.000000,1.040179 
	C1537.000000,160.362549 1537.000000,319.725311 1536.531372,479.537598 
	C1509.965454,480.649353 1483.867554,481.283325 1457.771851,482.005463 
	C1454.028809,482.109009 1450.288452,482.557709 1446.562500,482.983917 
	C1431.705078,484.683350 1416.854004,486.437134 1401.560669,488.079895 
	C1399.124146,487.975433 1397.112183,488.117126 1395.133179,487.923096 
	C1382.130615,486.648407 1369.135132,485.301239 1355.915039,483.592133 
	C1340.126343,483.192657 1324.559814,483.178772 1308.552979,483.098572 
	C1302.966919,482.348175 1297.823730,481.646240 1292.675293,480.984100 
	C1284.301392,479.907135 1275.904419,478.988708 1267.553101,477.759796 
	C1257.642700,476.301483 1247.778198,474.533936 1237.879028,472.995697 
	C1228.440796,471.529053 1218.980957,470.200317 1209.534912,468.783417 
	C1196.729858,466.862732 1183.955200,464.712311 1171.117676,463.044556 
	C1160.933228,461.721497 1150.679932,460.906769 1140.445923,459.991516 
	C1128.389038,458.913177 1116.336426,457.562347 1104.251953,457.080750 
	C1091.781006,456.583740 1079.274048,456.995453 1066.782837,456.997864 
	C1057.643921,456.999634 1048.469116,456.468658 1039.375122,457.102936 
	C1027.866943,457.905518 1016.401428,459.480591 1004.960754,461.039795 
	C995.521790,462.326233 986.151306,464.109131 976.740356,465.608307 
	C967.341003,467.105682 957.962891,469.361176 948.513123,469.743195 
	C938.903748,470.131683 929.210876,467.993530 919.567749,468.104248 
	C898.750061,468.343201 877.936401,469.204529 857.130432,470.044006 
	C849.799194,470.339813 842.466675,471.092804 835.185425,472.030182 
	C823.127869,473.582397 811.111328,475.453064 798.652039,477.104126 
	C796.502197,476.973846 794.777771,476.928986 792.842896,476.520874 
	C784.473572,475.432678 776.314697,474.707764 767.946899,473.584839 
	C757.102051,473.111359 746.466125,473.017365 735.830078,473.004822 
	C735.167236,473.004028 734.503662,473.641968 733.387207,473.989075 
	C724.972229,474.651245 716.971375,475.007538 709.058533,476.038788 
	C699.167603,477.327850 689.245850,478.709351 679.522400,480.879974 
	C662.987854,484.571014 646.598572,488.912384 630.146790,492.974762 
	C624.432129,494.385864 618.713135,495.779785 612.565369,497.101196 
	C603.140320,496.001740 594.145996,494.982666 584.968628,493.592255 
	C582.863098,493.201691 580.940674,493.182495 578.809814,493.084473 
	C578.601379,493.005707 578.157715,492.963348 577.972534,492.592804 
	C575.864563,492.203430 573.941772,492.184570 571.809448,492.086487 
	C571.599915,492.007294 571.154053,491.963837 570.979492,491.600281 
	C569.207520,491.211884 567.610046,491.187073 565.806091,491.083008 
	C565.599548,491.003815 565.158936,490.963531 564.973267,490.592987 
	C562.863464,490.203583 560.939270,490.184753 558.806885,490.086731 
	C558.598694,490.007599 558.155396,489.964874 557.966980,489.590149 
	C555.399841,488.802002 553.025146,488.362946 550.641663,487.979370 
	C539.972778,486.262604 529.270508,484.732758 518.639343,482.808655 
	C507.107452,480.721497 495.683319,478.025269 484.134247,476.050629 
	C472.509979,474.063171 460.823090,472.333160 449.102478,471.048248 
	C437.110382,469.733643 425.044037,469.096161 412.805298,468.082153 
	C412.600433,468.002014 412.162170,467.963318 411.945923,467.570740 
	C395.952881,467.107666 380.176086,467.028320 364.399231,467.007477 
	C363.895905,467.006805 363.391754,467.607056 362.920288,467.936646 
	C362.952576,467.946045 362.906189,467.896393 362.450012,467.947021 
	C351.613647,466.982635 341.224915,466.047363 330.855621,464.931183 
	C319.378632,463.695770 307.949432,461.712036 296.444611,461.120789 
	C283.488495,460.454895 270.464630,460.728485 257.482574,461.066284 
	C247.487991,461.326385 237.458206,461.876617 227.542130,463.095520 
	C215.034561,464.632935 202.608704,466.876343 190.180450,469.006866 
	C174.925858,471.621918 159.707153,474.445740 144.469315,477.159058 
	C131.602982,479.450043 118.782646,482.078583 105.847908,483.883911 
	C92.937393,485.685822 79.930511,486.920837 66.928139,487.906708 
	C53.636410,488.914581 40.304150,489.472290 26.979441,489.930725 
	C18.329073,490.228363 9.660446,489.995300 1.000000,490.000000 
z"/>
<path fill="#C8ECFC" opacity="1.000000" stroke="none" 
	d="
M1.000000,490.444153 
	C9.660446,489.995300 18.329073,490.228363 26.979441,489.930725 
	C40.304150,489.472290 53.636410,488.914581 66.928139,487.906708 
	C79.930511,486.920837 92.937393,485.685822 105.847908,483.883911 
	C118.782646,482.078583 131.602982,479.450043 144.469315,477.159058 
	C159.707153,474.445740 174.925858,471.621918 190.180450,469.006866 
	C202.608704,466.876343 215.034561,464.632935 227.542130,463.095520 
	C237.458206,461.876617 247.487991,461.326385 257.482574,461.066284 
	C270.464630,460.728485 283.488495,460.454895 296.444611,461.120789 
	C307.949432,461.712036 319.378632,463.695770 330.855621,464.931183 
	C341.224915,466.047363 351.613647,466.982635 362.473022,468.261292 
	C362.961304,468.734802 362.970337,468.944641 362.513489,469.120605 
	C348.358185,470.120209 334.660492,471.060425 320.987000,472.273987 
	C318.553680,472.489960 316.221069,473.840912 313.401489,474.721680 
	C308.638947,475.175995 304.316864,475.576416 299.528687,475.944458 
	C292.434967,476.244934 285.783997,476.332428 279.184601,476.961029 
	C264.831177,478.328156 250.400803,479.331360 236.186035,481.624817 
	C197.726639,487.829956 159.363449,494.631439 120.514641,501.156128 
	C117.104843,501.247833 114.142509,501.379761 110.766769,501.372131 
	C108.242302,501.532776 106.131226,501.832977 103.599091,502.115326 
	C101.499413,502.177124 99.820793,502.256744 97.673447,502.218292 
	C65.074181,502.195343 32.938049,502.421509 1.000000,498.000000 
	C1.000000,495.629425 1.000000,493.258881 1.000000,490.444153 
z"/>
<path fill="#29ABF3" opacity="1.000000" stroke="none" 
	d="
M1537.000000,516.000000 
	C1537.000000,518.370544 1537.000000,520.741150 1536.546143,523.560547 
	C1518.306396,522.314026 1500.531982,520.484741 1482.731445,518.961365 
	C1465.414551,517.479309 1448.073120,516.282349 1430.737793,515.022827 
	C1426.016846,514.679871 1421.267700,514.704529 1416.551880,514.314453 
	C1404.352417,513.305237 1392.164185,512.158875 1379.506104,511.052185 
	C1369.369873,511.041687 1359.699341,511.046326 1349.559204,511.037109 
	C1344.431274,511.031708 1339.758667,510.805817 1335.116943,511.089264 
	C1315.130859,512.309692 1295.157471,513.736145 1275.171875,514.967957 
	C1266.901245,515.477783 1258.601562,515.525513 1250.333618,516.067200 
	C1232.897583,517.209656 1215.643555,521.535828 1197.890137,518.743774 
	C1197.527954,517.999573 1197.275757,517.509094 1197.339600,516.985962 
	C1198.436890,516.634827 1199.218140,516.316162 1200.351929,516.156860 
	C1204.581543,516.150879 1208.458618,515.985718 1212.335571,515.820496 
	C1212.315674,515.353149 1212.295776,514.885742 1212.275757,514.418396 
	C1209.672241,514.116821 1207.068726,513.815308 1204.465210,513.513733 
	C1204.322021,512.913818 1204.178711,512.313965 1204.035522,511.714050 
	C1207.386353,510.479218 1210.755005,509.289581 1214.079712,507.987671 
	C1215.439209,507.455292 1216.703491,506.679962 1218.409424,506.013123 
	C1219.870239,506.009827 1220.932739,506.008514 1222.102783,506.391479 
	C1228.269653,509.491119 1234.131592,507.672913 1240.433594,506.000427 
	C1247.240234,505.659943 1253.613281,505.321075 1260.426270,504.989288 
	C1263.577515,504.663147 1266.288696,504.329956 1269.372925,503.994873 
	C1270.491699,503.990753 1271.237549,503.988525 1272.441406,503.992065 
	C1274.872192,503.994232 1276.922119,504.332886 1278.800537,503.909973 
	C1281.929932,503.205383 1284.949585,502.012848 1288.430298,501.020569 
	C1290.228516,501.010223 1291.611816,501.005035 1293.299072,501.272705 
	C1298.531982,501.363342 1303.463257,500.976929 1308.389526,501.034241 
	C1329.814941,501.283386 1351.243042,501.500427 1372.661865,502.056458 
	C1384.664673,502.368073 1396.651245,503.314026 1408.644531,503.985077 
	C1411.525024,504.146240 1414.403076,504.350677 1417.435547,504.545044 
	C1417.108276,503.378357 1416.868042,502.522125 1416.572266,501.467865 
	C1418.343018,501.667053 1419.798828,501.882629 1421.262573,501.987000 
	C1430.669434,502.657867 1440.070190,503.583801 1449.489258,503.856354 
	C1455.337402,504.025574 1461.214600,503.192169 1467.412109,502.818359 
	C1468.176025,502.934204 1468.606812,503.040497 1469.232788,503.356445 
	C1469.977417,503.698242 1470.526611,503.830322 1471.464966,503.968811 
	C1472.889893,503.991364 1473.925659,504.007538 1475.065918,504.249268 
	C1475.170288,504.474762 1475.593872,504.732666 1475.593872,504.732666 
	C1475.593872,504.732666 1476.069336,504.591431 1476.360840,504.550507 
	C1477.039307,504.449463 1477.426270,504.389374 1478.185181,504.523438 
	C1485.363403,506.082733 1492.169678,507.447906 1499.211426,509.113647 
	C1501.180664,509.938171 1502.881348,510.666718 1504.653442,510.952698 
	C1515.426636,512.691101 1526.216064,514.328735 1537.000000,516.000000 
z"/>
<path fill="#C8ECFC" opacity="1.000000" stroke="none" 
	d="
M1335.864990,538.058105 
	C1330.055786,538.044922 1324.244141,538.135437 1318.437988,537.995605 
	C1308.398071,537.753906 1298.355957,537.489441 1288.325317,537.014038 
	C1276.211670,536.439880 1264.109131,535.636414 1251.571533,534.702454 
	C1251.141235,534.472656 1251.200684,534.118713 1251.639160,534.136841 
	C1283.710693,530.966492 1315.343750,527.778015 1347.392822,524.692566 
	C1356.686890,524.143555 1365.565063,523.494324 1374.442749,522.838623 
	C1382.304199,522.257996 1390.164917,521.670227 1398.492432,521.114075 
	C1415.449951,521.091248 1431.943481,520.840515 1448.431152,521.056335 
	C1460.069824,521.208679 1471.718750,521.732300 1483.330078,522.556702 
	C1501.234985,523.827942 1519.111450,525.498718 1537.000000,527.000000 
	C1537.000000,528.066711 1537.000000,529.133362 1537.000000,530.600037 
	C1526.630005,532.001404 1516.263428,533.042297 1505.888306,533.987061 
	C1500.995850,534.432617 1496.091064,534.789429 1491.184082,535.017883 
	C1482.626953,535.416321 1474.062988,535.662903 1465.503418,536.011536 
	C1449.544312,536.661560 1433.585938,537.324280 1417.628540,538.012695 
	C1411.052856,538.296387 1404.480591,538.660095 1397.111938,538.671936 
	C1376.166382,538.256958 1356.015625,538.157532 1335.864990,538.058105 
z"/>
<path fill="#32B6F5" opacity="1.000000" stroke="none" 
	d="
M98.142181,502.336365 
	C99.820793,502.256744 101.499413,502.177124 103.880524,502.351196 
	C106.782059,502.240509 108.981110,501.876068 111.180161,501.511658 
	C114.142509,501.379761 117.104843,501.247833 120.651329,501.514160 
	C123.444115,502.265076 125.683533,503.054260 127.856499,502.901062 
	C144.708893,501.712921 161.555435,500.425385 178.389908,499.004150 
	C193.003860,497.770416 207.612259,496.438995 222.193115,494.871552 
	C225.201248,494.548187 228.010239,492.619080 231.027161,492.079651 
	C237.536377,490.915741 244.144531,490.314575 250.669266,489.225769 
	C260.460876,487.591705 270.215576,485.736694 280.367004,484.149353 
	C282.532928,484.548248 284.316498,484.955048 286.102936,484.968109 
	C295.131439,485.034271 304.168091,485.214691 313.186707,484.908905 
	C317.889771,484.749390 319.578247,486.537079 319.019135,490.998352 
	C318.896484,491.977020 318.991089,492.982941 318.519104,493.981354 
	C308.481903,494.624786 298.893585,495.071106 289.344879,495.948669 
	C276.518738,497.127441 263.708649,498.519073 250.921478,500.065460 
	C245.568359,500.712830 240.291656,501.992035 234.565369,502.984619 
	C232.767624,502.991028 231.384720,502.996735 229.563568,503.001709 
	C222.752151,503.671478 216.379013,504.342010 209.583878,505.012268 
	C203.770370,506.008423 198.378845,507.004852 192.656342,508.000549 
	C191.884094,508.001160 191.442795,508.002411 190.574799,508.003784 
	C187.435501,508.338623 184.722900,508.673309 181.673492,509.006714 
	C180.887650,509.007385 180.438599,509.009338 179.588196,509.010315 
	C177.455704,509.340118 175.724564,509.670837 173.617874,510.001282 
	C172.491196,510.004364 171.740082,510.007751 170.573059,510.010010 
	C168.101501,510.339996 166.045868,510.671051 163.658295,511.001740 
	C162.883774,511.002960 162.441193,511.004517 161.556183,511.005768 
	C158.410004,511.670319 155.706223,512.335144 152.638824,512.953003 
	C150.849655,512.606445 149.424088,512.306885 147.581818,512.006104 
	C145.775375,512.010742 144.385666,512.016663 142.542267,512.018066 
	C130.688690,512.669250 119.282417,513.970764 107.890076,513.858521 
	C75.032715,513.534790 42.181480,512.612244 9.326080,512.022949 
	C6.557453,511.973297 3.775672,512.656982 1.000001,513.000000 
	C1.000000,510.629456 1.000000,508.258881 1.468312,505.430023 
	C11.010493,504.990448 20.085892,505.124878 29.157923,505.004791 
	C50.554966,504.721649 71.951111,504.350403 93.345085,503.895172 
	C94.954445,503.860962 96.543617,502.878204 98.142181,502.336365 
z"/>
<path fill="#CAEDFC" opacity="1.000000" stroke="none" 
	d="
M1477.813354,504.329285 
	C1477.426270,504.389374 1477.039307,504.449463 1476.198486,504.417511 
	C1475.507080,504.163696 1475.246094,504.063110 1474.961548,504.023743 
	C1473.925659,504.007538 1472.889893,503.991364 1471.287842,503.729004 
	C1470.160400,503.370819 1469.598877,503.258789 1469.037476,503.146729 
	C1468.606812,503.040497 1468.176025,502.934204 1467.131104,502.587830 
	C1450.664917,498.906830 1434.823730,495.415283 1418.955444,492.052277 
	C1413.343994,490.863037 1407.665894,489.987640 1402.022217,488.769226 
	C1402.026001,488.569519 1402.000488,488.170807 1402.000488,488.170807 
	C1416.854004,486.437134 1431.705078,484.683350 1446.562500,482.983917 
	C1450.288452,482.557709 1454.028809,482.109009 1457.771851,482.005463 
	C1483.867554,481.283325 1509.965454,480.649353 1536.531372,479.993561 
	C1537.000000,486.021149 1537.000000,492.042297 1536.575928,498.549377 
	C1534.196655,499.344788 1532.251587,499.810516 1530.284424,499.939270 
	C1513.970825,501.006866 1497.651611,501.989777 1481.339722,503.082336 
	C1480.141846,503.162567 1478.987793,503.898315 1477.813354,504.329285 
z"/>
<path fill="#3BB1F2" opacity="1.000000" stroke="none" 
	d="
M179.989548,509.011292 
	C180.438599,509.009338 180.887650,509.007385 181.963501,509.275452 
	C185.516815,509.701416 188.776535,511.675079 191.001511,508.003662 
	C191.442795,508.002411 191.884094,508.001160 192.964355,508.275391 
	C196.907562,508.664459 200.258118,509.182190 203.506668,508.809937 
	C210.966675,507.955017 216.807831,514.490662 214.639511,522.117188 
	C212.185425,522.844910 210.106400,523.513794 207.585938,524.158020 
	C202.431396,524.442688 197.718277,524.752014 192.705353,524.769897 
	C190.435120,524.320618 188.463074,524.007935 186.494461,524.028198 
	C157.740952,524.324158 128.987747,524.939453 100.234810,524.921997 
	C67.156364,524.901917 34.078255,524.331421 1.000000,524.000000 
	C1.000000,522.933289 1.000000,521.866638 1.467656,520.382812 
	C21.936277,520.293091 41.937244,520.620361 62.409664,520.964539 
	C67.859802,520.906250 73.475548,522.256958 77.653839,520.390259 
	C82.728683,518.122986 87.535713,518.185974 92.596130,518.002014 
	C94.919205,517.917542 97.256569,518.041382 99.567627,517.841492 
	C114.046082,516.589722 128.518951,515.273193 143.386444,513.984131 
	C145.185669,513.329346 146.592102,512.668335 147.998535,512.007324 
	C149.424088,512.306885 150.849655,512.606445 153.081100,512.951599 
	C156.590866,512.333496 159.294739,511.669830 161.998611,511.006104 
	C162.441193,511.004517 162.883774,511.002960 163.935974,511.263733 
	C166.693375,511.021118 168.841171,510.516113 170.988968,510.011139 
	C171.740082,510.007751 172.491196,510.004364 173.884644,510.260010 
	C176.347839,510.016479 178.168701,509.513885 179.989548,509.011292 
z"/>
<path fill="#51C0F3" opacity="1.000000" stroke="none" 
	d="
M1.000000,524.454102 
	C34.078255,524.331421 67.156364,524.901917 100.234810,524.921997 
	C128.987747,524.939453 157.740952,524.324158 186.494461,524.028198 
	C188.463074,524.007935 190.435120,524.320618 192.389984,525.009033 
	C162.768555,528.323975 133.205078,531.766357 103.542915,533.676697 
	C81.304741,535.109070 58.939445,534.560791 36.631237,534.924683 
	C34.655396,534.956909 32.683212,535.213379 30.324604,535.356812 
	C24.586750,535.234680 19.233620,535.121399 13.880486,535.008179 
	C9.872910,534.689880 5.865335,534.371521 1.428880,534.026611 
	C1.000000,530.969421 1.000000,527.938782 1.000000,524.454102 
z"/>
<path fill="#3CBAF2" opacity="1.000000" stroke="none" 
	d="
M1537.000000,526.625000 
	C1519.111450,525.498718 1501.234985,523.827942 1483.330078,522.556702 
	C1471.718750,521.732300 1460.069824,521.208679 1448.431152,521.056335 
	C1431.943481,520.840515 1415.449951,521.091248 1398.339600,520.801880 
	C1395.107422,517.038147 1392.028687,514.975525 1387.360840,514.761963 
	C1384.846680,514.646851 1382.431396,512.369202 1379.971558,511.067291 
	C1392.164185,512.158875 1404.352417,513.305237 1416.551880,514.314453 
	C1421.267700,514.704529 1426.016846,514.679871 1430.737793,515.022827 
	C1448.073120,516.282349 1465.414551,517.479309 1482.731445,518.961365 
	C1500.531982,520.484741 1518.306396,522.314026 1536.546143,524.004700 
	C1537.000000,524.750000 1537.000000,525.500000 1537.000000,526.625000 
z"/>
<path fill="#4AC0F3" opacity="1.000000" stroke="none" 
	d="
M142.993652,513.978027 
	C128.518951,515.273193 114.046082,516.589722 99.567627,517.841492 
	C97.256569,518.041382 94.919205,517.917542 92.596130,518.002014 
	C87.535713,518.185974 82.728683,518.122986 77.653839,520.390259 
	C73.475548,522.256958 67.859802,520.906250 62.316982,520.584167 
	C55.790947,519.461182 49.844273,518.555237 43.863739,518.050293 
	C33.814266,517.201660 23.735004,516.706299 13.685205,515.861084 
	C9.434691,515.503601 5.227098,514.635864 0.999999,514.000000 
	C1.000000,514.000000 1.000000,513.500000 1.000001,513.250000 
	C3.775672,512.656982 6.557453,511.973297 9.326080,512.022949 
	C42.181480,512.612244 75.032715,513.534790 107.890076,513.858521 
	C119.282417,513.970764 130.688690,512.669250 142.542969,512.343750 
	C142.996094,513.108704 142.994873,513.543396 142.993652,513.978027 
z"/>
<path fill="#8CDCFA" opacity="1.000000" stroke="none" 
	d="
M1478.185181,504.523438 
	C1478.987793,503.898315 1480.141846,503.162567 1481.339722,503.082336 
	C1497.651611,501.989777 1513.970825,501.006866 1530.284424,499.939270 
	C1532.251587,499.810516 1534.196655,499.344788 1536.575928,499.017639 
	C1537.000000,502.030609 1537.000000,505.061188 1536.531372,508.547729 
	C1527.091064,508.990601 1518.119385,508.989746 1509.147705,508.958282 
	C1505.757080,508.946381 1502.366577,508.863586 1498.976074,508.813110 
	C1492.169678,507.447906 1485.363403,506.082733 1478.185181,504.523438 
z"/>
<path fill="#6ACEF6" opacity="1.000000" stroke="none" 
	d="
M97.673454,502.218323 
	C96.543617,502.878204 94.954445,503.860962 93.345085,503.895172 
	C71.951111,504.350403 50.554966,504.721649 29.157923,505.004791 
	C20.085892,505.124878 11.010493,504.990448 1.468312,504.985840 
	C1.000000,502.958344 1.000000,500.916656 1.000000,498.437500 
	C32.938049,502.421509 65.074181,502.195343 97.673454,502.218323 
z"/>
<path fill="#6ACEF6" opacity="1.000000" stroke="none" 
	d="
M0.999999,514.428467 
	C5.227098,514.635864 9.434691,515.503601 13.685205,515.861084 
	C23.735004,516.706299 33.814266,517.201660 43.863739,518.050293 
	C49.844273,518.555237 55.790947,519.461182 61.845528,520.567261 
	C41.937244,520.620361 21.936277,520.293091 1.467656,519.982910 
	C1.000000,518.285645 1.000000,516.571289 0.999999,514.428467 
z"/>
<path fill="#4AC0F3" opacity="1.000000" stroke="none" 
	d="
M1499.211426,509.113647 
	C1502.366577,508.863586 1505.757080,508.946381 1509.147705,508.958282 
	C1518.119385,508.989746 1527.091064,508.990601 1536.531372,509.001831 
	C1537.000000,511.041656 1537.000000,513.083313 1537.000000,515.562500 
	C1526.216064,514.328735 1515.426636,512.691101 1504.653442,510.952698 
	C1502.881348,510.666718 1501.180664,509.938171 1499.211426,509.113647 
z"/>
<path fill="#4AC0F3" opacity="1.000000" stroke="none" 
	d="
M616.876953,541.994873 
	C602.137573,541.659546 587.365601,541.820618 572.667419,540.856750 
	C556.190552,539.776306 539.775696,537.723633 523.342896,536.007935 
	C511.146515,534.734741 498.944824,533.478882 486.781250,531.934021 
	C473.073792,530.193115 459.406403,528.136902 445.022552,525.805725 
	C438.969330,524.791199 433.615143,524.188843 428.092529,523.297852 
	C426.284912,522.335693 424.645721,521.662109 423.301849,520.717529 
	C430.814117,520.322876 438.053375,519.784119 445.242920,520.170471 
	C456.792267,520.790955 468.308990,522.020447 479.839081,522.997192 
	C492.032257,524.030029 504.219971,525.131775 516.419006,526.089844 
	C537.849854,527.772888 559.292358,529.308716 580.720032,531.030518 
	C590.102539,531.784424 599.445435,533.090454 608.835693,533.665405 
	C613.858887,533.972961 618.944641,533.259827 624.470581,533.006226 
	C643.204224,532.672546 661.471436,531.998779 679.734192,532.102722 
	C698.196045,532.207764 716.192810,529.191467 734.220642,525.810913 
	C751.090698,522.647461 768.013062,519.716858 784.981384,517.138306 
	C796.733337,515.352417 808.595703,514.275635 820.422058,513.005798 
	C826.175903,512.388000 831.998779,512.329346 837.721680,511.526855 
	C846.485168,510.298035 855.153320,508.364624 863.927551,507.244171 
	C874.582764,505.883453 885.306152,505.056610 896.380127,503.998962 
	C898.506836,502.999054 900.253418,501.998932 902.465332,500.999390 
	C911.500061,499.198151 918.859741,504.596069 926.948608,505.409546 
	C924.252869,506.530182 921.658020,507.292694 919.063904,508.057678 
	C916.344910,508.859436 912.780090,508.632355 912.592896,513.046204 
	C910.784424,513.027832 909.393311,512.990479 907.846069,512.753845 
	C907.125305,512.675537 906.560669,512.796448 905.596069,512.941040 
	C904.128540,512.938477 903.061035,512.912292 901.671570,512.636597 
	C896.900940,512.567688 892.452209,512.748352 887.535278,512.955566 
	C866.801453,513.086487 846.591003,513.287903 826.793091,518.794189 
	C813.210754,522.571777 799.449707,525.755676 785.673889,528.772766 
	C774.872986,531.138306 763.927063,532.841370 753.045532,534.838745 
	C740.425781,536.226379 727.835022,538.039490 715.179565,538.903992 
	C695.169983,540.270874 675.116943,541.002014 654.146484,541.929077 
	C641.099426,541.902222 628.988220,541.948608 616.876953,541.994873 
z"/>
<path fill="#C8ECFC" opacity="1.000000" stroke="none" 
	d="
M428.260956,523.586426 
	C433.615143,524.188843 438.969330,524.791199 444.650879,525.607422 
	C430.756927,525.562500 416.533905,525.373657 402.315063,525.017029 
	C394.575195,524.822876 386.805359,523.692200 379.114380,524.130432 
	C363.620728,525.013306 348.167450,526.632629 332.705933,528.040833 
	C322.807220,528.942322 312.906830,529.868469 303.037994,531.042542 
	C293.382507,532.191223 283.782318,533.803833 274.127380,534.957703 
	C266.672180,535.848633 259.178497,536.469238 251.686646,536.990784 
	C236.138443,538.073059 220.580276,539.012512 205.025818,540.004333 
	C199.618896,540.349121 194.213928,540.895935 188.802689,540.972900 
	C159.587570,541.388245 130.370224,541.967468 101.154778,541.910339 
	C85.178360,541.879150 69.198181,540.816650 53.232281,539.979431 
	C47.748062,539.691895 42.301998,538.676636 36.313187,537.788818 
	C35.461472,537.409485 35.202175,537.497375 35.009983,537.847412 
	C34.251606,537.898865 33.493233,537.950317 32.198292,537.625854 
	C31.344259,536.621826 31.026789,535.993713 30.709324,535.365662 
	C32.683212,535.213379 34.655396,534.956909 36.631237,534.924683 
	C58.939445,534.560791 81.304741,535.109070 103.542915,533.676697 
	C133.205078,531.766357 162.768555,528.323975 192.689789,525.300476 
	C197.718277,524.752014 202.431396,524.442688 207.906219,524.409424 
	C225.761520,524.472656 242.858826,524.414978 259.947815,524.008118 
	C281.853668,523.486450 303.750885,522.203186 325.655273,522.117249 
	C356.738861,521.995300 387.825775,522.652039 418.910767,523.019165 
	C422.029266,523.055969 425.144318,523.390198 428.260956,523.586426 
z"/>
<path fill="#C8ECFC" opacity="1.000000" stroke="none" 
	d="
M753.506592,534.912476 
	C763.927063,532.841370 774.872986,531.138306 785.673889,528.772766 
	C799.449707,525.755676 813.210754,522.571777 826.793091,518.794189 
	C846.591003,513.287903 866.801453,513.086487 887.996338,513.013000 
	C893.281555,512.991333 897.637512,512.938660 901.993469,512.886047 
	C903.061035,512.912292 904.128540,512.938477 905.927979,512.999512 
	C907.107300,513.007202 907.554749,512.980103 908.002136,512.953064 
	C909.393311,512.990479 910.784424,513.027832 912.973022,513.208740 
	C914.747742,513.526428 915.718201,513.775208 916.703186,513.863464 
	C931.741150,515.210693 946.780640,516.540710 961.820496,517.866394 
	C968.901672,518.490601 975.984375,519.097290 983.456299,519.796997 
	C984.908203,519.883972 985.970032,519.885803 987.359619,519.985718 
	C988.142151,520.115356 988.597107,520.146973 989.343994,520.347168 
	C990.726685,520.729858 991.817383,520.943909 993.098511,521.353516 
	C993.854553,521.978088 994.420044,522.407104 994.985535,522.836182 
	C990.755432,522.564331 986.500122,521.870911 982.301208,522.121338 
	C976.323425,522.477905 970.381775,523.489380 964.434021,524.289917 
	C955.451721,525.498901 946.481201,526.794739 937.498840,528.002930 
	C927.378662,529.364197 917.255615,530.706116 907.124084,531.979431 
	C903.402527,532.447205 899.659790,532.812561 895.915344,533.018066 
	C888.522949,533.423828 881.124390,533.736328 873.725159,533.994629 
	C862.836487,534.374817 851.944946,534.673828 840.118347,535.015015 
	C819.077332,535.033997 798.972595,535.045410 778.867859,535.056763 
	C770.567810,535.033264 762.267761,535.009766 753.506592,534.912476 
z"/>
<path fill="#51C0F3" opacity="1.000000" stroke="none" 
	d="
M995.353394,523.013184 
	C994.420044,522.407104 993.854553,521.978088 993.329102,521.091309 
	C995.591003,520.416870 997.808899,520.129822 1000.035889,520.003845 
	C1002.094482,519.887512 1004.329712,519.418335 1006.198730,520.012268 
	C1015.902527,523.095947 1025.078247,521.172485 1034.316406,517.953369 
	C1037.656982,516.789307 1041.396606,515.971802 1044.884155,516.177856 
	C1055.607666,516.811523 1066.297241,518.016846 1077.448242,519.000000 
	C1082.339355,519.416504 1086.794067,519.734741 1091.223022,520.266785 
	C1109.581665,522.472229 1127.906128,524.995911 1146.294922,526.904480 
	C1159.933960,528.320190 1173.648926,529.021912 1187.336670,529.944519 
	C1208.621826,531.379333 1229.912354,532.731506 1251.200684,534.118713 
	C1251.200684,534.118713 1251.141235,534.472656 1251.111328,534.649536 
	C1246.097412,535.550110 1241.135010,536.575684 1236.124878,536.937012 
	C1224.317139,537.788452 1212.488037,538.350647 1200.664673,538.975952 
	C1193.427612,539.358765 1186.185425,539.641785 1178.160034,539.635681 
	C1160.479736,539.203674 1143.584961,539.097107 1126.690063,539.042847 
	C1126.109009,539.040955 1125.526245,539.562378 1124.944336,539.839844 
	C1122.195435,539.884827 1119.446655,539.929749 1116.123657,539.536011 
	C1114.824463,538.800720 1114.114014,538.290649 1113.371948,538.239258 
	C1102.200684,537.464722 1091.026733,536.727966 1079.849976,536.037659 
	C1076.959717,535.859192 1074.057739,535.871155 1071.161133,535.795715 
	C1061.958252,534.795837 1052.682373,534.230103 1043.568604,532.699707 
	C1027.814819,530.054138 1012.161194,526.812256 996.470093,523.797302 
	C996.191895,523.743896 995.969666,523.399048 995.353394,523.013184 
z"/>
<path fill="#CAEDFC" opacity="1.000000" stroke="none" 
	d="
M1336.078613,538.448669 
	C1356.015625,538.157532 1376.166382,538.256958 1396.646851,538.602600 
	C1376.748535,538.845581 1356.520264,538.842407 1336.078613,538.448669 
z"/>
<path fill="#B1E6FB" opacity="1.000000" stroke="none" 
	d="
M1071.570312,535.875610 
	C1074.057739,535.871155 1076.959717,535.859192 1079.849976,536.037659 
	C1091.026733,536.727966 1102.200684,537.464722 1113.371948,538.239258 
	C1114.114014,538.290649 1114.824463,538.800720 1115.671143,539.439270 
	C1104.364990,538.850769 1092.935913,537.938477 1081.510864,536.978088 
	C1078.327515,536.710449 1075.156250,536.300293 1071.570312,535.875610 
z"/>
<path fill="#CAEDFC" opacity="1.000000" stroke="none" 
	d="
M779.080200,535.447998 
	C798.972595,535.045410 819.077332,535.033997 839.658813,535.040039 
	C839.465637,535.385193 838.795410,535.999512 838.125732,535.999023 
	C818.514587,535.983337 798.903564,535.906372 779.080200,535.447998 
z"/>
<path fill="#8CDCFA" opacity="1.000000" stroke="none" 
	d="
M1125.413574,539.921387 
	C1125.526245,539.562378 1126.109009,539.040955 1126.690063,539.042847 
	C1143.584961,539.097107 1160.479736,539.203674 1177.697632,539.567871 
	C1160.641479,539.890259 1143.262207,539.946594 1125.413574,539.921387 
z"/>
<path fill="#CAEDFC" opacity="1.000000" stroke="none" 
	d="
M617.068359,542.401306 
	C628.988220,541.948608 641.099426,541.902222 653.688477,541.916321 
	C653.511963,542.330811 652.857300,542.993713 652.203430,542.992920 
	C640.555481,542.979126 628.907654,542.884705 617.068359,542.401306 
z"/>
<path fill="#CAEDFC" opacity="1.000000" stroke="none" 
	d="
M30.324600,535.356812 
	C31.026789,535.993713 31.344259,536.621826 31.822720,537.557434 
	C26.067863,537.173645 20.152018,536.482300 14.058331,535.399536 
	C19.233620,535.121399 24.586750,535.234680 30.324600,535.356812 
z"/>
<path fill="#CAEDFC" opacity="1.000000" stroke="none" 
	d="
M35.253086,537.914673 
	C35.202175,537.497375 35.461472,537.409485 35.884705,537.714111 
	C35.819756,537.890198 35.657974,537.936096 35.253086,537.914673 
z"/>
<path fill="#CAEDFC" opacity="1.000000" stroke="none" 
	d="
M799.077515,477.189575 
	C811.111328,475.453064 823.127869,473.582397 835.185425,472.030182 
	C842.466675,471.092804 849.799194,470.339813 857.130432,470.044006 
	C877.936401,469.204529 898.750061,468.343201 919.567749,468.104248 
	C929.210876,467.993530 938.903748,470.131683 948.513123,469.743195 
	C957.962891,469.361176 967.341003,467.105682 976.740356,465.608307 
	C986.151306,464.109131 995.521790,462.326233 1004.960754,461.039795 
	C1016.401428,459.480591 1027.866943,457.905518 1039.375122,457.102936 
	C1048.469116,456.468658 1057.643921,456.999634 1066.782837,456.997864 
	C1079.274048,456.995453 1091.781006,456.583740 1104.251953,457.080750 
	C1116.336426,457.562347 1128.389038,458.913177 1140.445923,459.991516 
	C1150.679932,460.906769 1160.933228,461.721497 1171.117676,463.044556 
	C1183.955200,464.712311 1196.729858,466.862732 1209.534912,468.783417 
	C1218.980957,470.200317 1228.440796,471.529053 1237.879028,472.995697 
	C1247.778198,474.533936 1257.642700,476.301483 1267.553101,477.759796 
	C1275.904419,478.988708 1284.301392,479.907135 1292.675293,480.984100 
	C1297.823730,481.646240 1302.966919,482.348175 1308.533691,483.274811 
	C1308.954956,483.517365 1308.907593,483.868652 1308.450195,483.891174 
	C1289.814453,485.347076 1271.643188,486.878540 1253.456055,488.189606 
	C1229.644165,489.906128 1205.819946,491.448517 1181.738403,492.783325 
	C1152.168213,487.041016 1122.910522,481.292023 1093.537476,476.210327 
	C1068.841187,471.937714 1043.929932,469.485016 1018.797607,469.922424 
	C1008.482849,470.101929 998.161682,469.900543 987.846313,470.059662 
	C983.883728,470.120819 979.929199,470.703247 975.529785,471.036438 
	C967.296204,471.369171 959.468079,471.378357 951.726746,472.202148 
	C947.962524,472.602783 944.360413,474.526459 940.252625,475.769714 
	C937.218933,476.010040 934.617432,476.241302 931.602234,476.364624 
	C915.741638,477.887421 900.233398,479.090576 884.868896,481.295166 
	C874.145813,482.833771 863.619568,485.743866 852.571289,488.039673 
	C850.122986,488.141510 848.108826,488.245087 845.765076,488.107544 
	C842.241028,487.070343 839.065002,486.189270 835.848877,485.493347 
	C824.250916,482.983856 812.639404,480.536682 800.763550,478.008057 
	C800.021912,477.696594 799.549744,477.443054 799.077515,477.189575 
z"/>
<path fill="#9EE1FA" opacity="1.000000" stroke="none" 
	d="
M612.996155,497.181549 
	C618.713135,495.779785 624.432129,494.385864 630.146790,492.974762 
	C646.598572,488.912384 662.987854,484.571014 679.522400,480.879974 
	C689.245850,478.709351 699.167603,477.327850 709.058533,476.038788 
	C716.971375,475.007538 724.972229,474.651245 733.866333,474.020569 
	C745.917725,474.024719 757.036804,474.003784 768.155823,473.982849 
	C776.314697,474.707764 784.473572,475.432678 792.817322,476.907776 
	C792.077209,482.594635 787.494507,482.172424 784.358398,482.789825 
	C764.260803,486.746582 744.100464,490.399933 723.915649,493.891785 
	C714.319641,495.551880 704.661560,497.216034 694.964661,497.842651 
	C681.240967,498.729431 667.454285,498.624725 653.697266,499.034607 
	C651.790283,499.091431 649.898682,499.667206 647.535522,500.004578 
	C635.703369,499.303497 624.335754,498.600525 612.974365,497.718506 
	C612.980652,497.539490 612.996155,497.181549 612.996155,497.181549 
z"/>
<path fill="#C8ECFC" opacity="1.000000" stroke="none" 
	d="
M413.010193,468.162323 
	C425.044037,469.096161 437.110382,469.733643 449.102478,471.048248 
	C460.823090,472.333160 472.509979,474.063171 484.134247,476.050629 
	C495.683319,478.025269 507.107452,480.721497 518.639343,482.808655 
	C529.270508,484.732758 539.972778,486.262604 550.641663,487.979370 
	C553.025146,488.362946 555.399841,488.802002 557.514893,489.610626 
	C552.855042,489.408630 548.465149,488.757751 544.060425,488.231903 
	C540.758728,487.837769 537.594177,487.152008 536.486023,492.100403 
	C536.118958,493.739502 532.818604,495.660248 530.736694,495.816345 
	C521.113647,496.537933 511.445190,496.636322 501.797668,497.063416 
	C498.868011,497.193115 495.953247,497.660400 492.614685,497.913971 
	C484.131592,497.569550 476.065491,497.284210 467.597351,496.985779 
	C453.117340,493.021698 439.039368,489.070679 424.984131,484.748230 
	C427.389587,479.989868 429.772308,475.602997 432.448181,470.676361 
	C425.281128,469.749390 419.145660,468.955872 413.010193,468.162323 
z"/>
<path fill="#8CDCFA" opacity="1.000000" stroke="none" 
	d="
M648.000000,500.002747 
	C649.898682,499.667206 651.790283,499.091431 653.697266,499.034607 
	C667.454285,498.624725 681.240967,498.729431 694.964661,497.842651 
	C704.661560,497.216034 714.319641,495.551880 723.915649,493.891785 
	C744.100464,490.399933 764.260803,486.746582 784.358398,482.789825 
	C787.494507,482.172424 792.077209,482.594635 793.027832,477.271027 
	C794.777771,476.928986 796.502197,476.973846 798.652039,477.104126 
	C799.549744,477.443054 800.021912,477.696594 800.676941,478.361023 
	C798.384705,481.519623 798.713623,484.369659 800.219055,487.505554 
	C803.097229,493.501099 798.771301,500.649231 792.000854,500.971954 
	C769.615784,502.038910 747.233032,503.431305 724.833740,503.837555 
	C706.051697,504.178192 687.239563,503.541443 668.457886,502.862335 
	C661.613037,502.614838 654.817871,500.995972 648.000000,500.002747 
z"/>
<path fill="#B1E6FB" opacity="1.000000" stroke="none" 
	d="
M493.031677,497.973022 
	C495.953247,497.660400 498.868011,497.193115 501.797668,497.063416 
	C511.445190,496.636322 521.113647,496.537933 530.736694,495.816345 
	C532.818604,495.660248 536.118958,493.739502 536.486023,492.100403 
	C537.594177,487.152008 540.758728,487.837769 544.060425,488.231903 
	C548.465149,488.757751 552.855042,489.408630 557.703369,489.985352 
	C558.155396,489.964874 558.598694,490.007599 559.113525,490.323853 
	C561.471924,490.747894 563.315430,490.855713 565.158936,490.963531 
	C565.158936,490.963531 565.599548,491.003815 566.100952,491.318085 
	C568.119629,491.742828 569.636841,491.853333 571.154053,491.963837 
	C571.154053,491.963837 571.599915,492.007294 572.115723,492.323303 
	C574.473572,492.747345 576.315613,492.855347 578.157715,492.963348 
	C578.157715,492.963348 578.601379,493.005707 579.115295,493.322083 
	C581.470032,493.746857 583.310913,493.855225 585.151733,493.963593 
	C594.145996,494.982666 603.140320,496.001740 612.565369,497.101196 
	C612.996155,497.181549 612.980652,497.539490 612.558594,497.757843 
	C606.979675,498.985931 601.833557,500.054962 596.663330,500.991364 
	C589.110596,502.359253 581.540588,503.631958 573.546143,504.950867 
	C571.103027,505.065979 569.091736,505.175476 566.788574,505.225433 
	C565.992920,505.421722 565.489014,505.677521 564.537842,505.940613 
	C561.420044,506.065125 558.749512,506.182373 555.746094,506.220337 
	C554.608032,506.423462 553.802734,506.705872 552.571350,506.980896 
	C550.441162,507.016785 548.737122,507.059967 546.563538,507.053558 
	C544.109009,507.002167 542.121460,506.933929 540.139526,507.010712 
	C533.425598,507.270813 526.713623,507.582336 519.583252,507.868896 
	C515.272095,507.522675 511.378632,507.181854 507.295837,506.623779 
	C506.746674,506.300232 506.386841,506.193970 505.653870,506.010712 
	C504.016632,505.903931 502.752594,505.874115 501.297241,505.627472 
	C500.744720,505.304626 500.383514,505.198639 499.689026,505.022339 
	C498.902649,504.945770 498.449554,504.939453 497.673401,504.771027 
	C495.524933,504.166107 493.699493,503.723297 491.911652,502.891388 
	C492.310059,500.992523 492.670898,499.482788 493.031677,497.973022 
z"/>
<path fill="#B1E6FB" opacity="1.000000" stroke="none" 
	d="
M412.805298,468.082153 
	C419.145660,468.955872 425.281128,469.749390 432.448181,470.676361 
	C429.772308,475.602997 427.389587,479.989868 424.576233,484.758606 
	C412.129639,482.664001 400.113647,480.187561 387.968689,477.377411 
	C381.846802,475.356812 375.830933,473.745819 369.872284,471.945496 
	C367.509277,471.231506 365.273224,470.097321 362.979370,469.154449 
	C362.970337,468.944641 362.961304,468.734802 362.929199,468.210693 
	C362.906189,467.896393 362.952576,467.946045 363.394958,467.975800 
	C379.945648,467.991486 396.053894,467.977417 412.162170,467.963318 
	C412.162170,467.963318 412.600433,468.002014 412.805298,468.082153 
z"/>
<path fill="#51C0F3" opacity="1.000000" stroke="none" 
	d="
M1401.560669,488.079895 
	C1402.000488,488.170807 1402.026001,488.569519 1401.735474,489.049805 
	C1397.526855,490.025177 1393.615967,490.865173 1389.689209,490.947601 
	C1379.807495,491.155121 1369.918335,491.020844 1359.608887,491.002747 
	C1350.009399,489.987823 1340.794922,489.251007 1331.672974,487.892426 
	C1327.028442,487.200684 1322.550171,485.391174 1318.464844,484.057861 
	C1331.334473,484.011749 1343.735840,483.994720 1356.137329,483.977722 
	C1369.135132,485.301239 1382.130615,486.648407 1395.133179,487.923096 
	C1397.112183,488.117126 1399.124146,487.975433 1401.560669,488.079895 
z"/>
<path fill="#CAEDFC" opacity="1.000000" stroke="none" 
	d="
M411.945923,467.570740 
	C396.053894,467.977417 379.945648,467.991486 363.362671,467.966370 
	C363.391754,467.607056 363.895905,467.006805 364.399231,467.007477 
	C380.176086,467.028320 395.952881,467.107666 411.945923,467.570740 
z"/>
<path fill="#8CDCFA" opacity="1.000000" stroke="none" 
	d="
M1355.915039,483.592133 
	C1343.735840,483.994720 1331.334473,484.011749 1318.013184,484.029724 
	C1314.364746,483.976685 1311.636108,483.922668 1308.907593,483.868652 
	C1308.907593,483.868652 1308.954956,483.517365 1308.974121,483.341125 
	C1324.559814,483.178772 1340.126343,483.192657 1355.915039,483.592133 
z"/>
<path fill="#CAEDFC" opacity="1.000000" stroke="none" 
	d="
M767.946899,473.584839 
	C757.036804,474.003784 745.917725,474.024719 734.319580,474.014221 
	C734.503662,473.641968 735.167236,473.004028 735.830078,473.004822 
	C746.466125,473.017365 757.102051,473.111359 767.946899,473.584839 
z"/>
<path fill="#C8ECFC" opacity="1.000000" stroke="none" 
	d="
M584.968628,493.592255 
	C583.310913,493.855225 581.470032,493.746857 579.323730,493.400879 
	C580.940674,493.182495 582.863098,493.201691 584.968628,493.592255 
z"/>
<path fill="#C8ECFC" opacity="1.000000" stroke="none" 
	d="
M577.972534,492.592804 
	C576.315613,492.855347 574.473572,492.747345 572.325195,492.402527 
	C573.941772,492.184570 575.864563,492.203430 577.972534,492.592804 
z"/>
<path fill="#C8ECFC" opacity="1.000000" stroke="none" 
	d="
M564.973267,490.592987 
	C563.315430,490.855713 561.471924,490.747894 559.321777,490.402985 
	C560.939270,490.184753 562.863464,490.203583 564.973267,490.592987 
z"/>
<path fill="#C8ECFC" opacity="1.000000" stroke="none" 
	d="
M570.979492,491.600281 
	C569.636841,491.853333 568.119629,491.742828 566.307495,491.397278 
	C567.610046,491.187073 569.207520,491.211884 570.979492,491.600281 
z"/>
<path fill="#51C0F3" opacity="1.000000" stroke="none" 
	d="
M279.985992,483.975647 
	C270.215576,485.736694 260.460876,487.591705 250.669266,489.225769 
	C244.144531,490.314575 237.536377,490.915741 231.027161,492.079651 
	C228.010239,492.619080 225.201248,494.548187 222.193115,494.871552 
	C207.612259,496.438995 193.003860,497.770416 178.389908,499.004150 
	C161.555435,500.425385 144.708893,501.712921 127.856499,502.901062 
	C125.683533,503.054260 123.444115,502.265076 121.098785,501.554382 
	C159.363449,494.631439 197.726639,487.829956 236.186035,481.624817 
	C250.400803,479.331360 264.831177,478.328156 279.184601,476.961029 
	C285.783997,476.332428 292.434967,476.244934 299.510803,476.347168 
	C298.570221,477.518951 297.250580,478.461914 295.780090,478.955017 
	C290.543121,480.711243 285.254852,482.314514 279.985992,483.975647 
z"/>
<path fill="#3CBAF2" opacity="1.000000" stroke="none" 
	d="
M280.367004,484.149353 
	C285.254852,482.314514 290.543121,480.711243 295.780090,478.955017 
	C297.250580,478.461914 298.570221,477.518951 299.976929,476.379578 
	C304.316864,475.576416 308.638947,475.175995 313.873718,474.838989 
	C333.524292,475.602020 352.262146,476.301636 370.999420,477.373840 
	C371.005127,478.491699 371.011414,479.236938 370.576416,479.988281 
	C368.323029,479.971741 366.495819,480.091553 364.701324,479.901825 
	C356.949677,479.082367 349.896851,486.298096 350.529053,494.002441 
	C339.702240,493.994537 329.343933,493.985413 318.985626,493.976288 
	C318.991089,492.982941 318.896484,491.977020 319.019135,490.998352 
	C319.578247,486.537079 317.889771,484.749390 313.186707,484.908905 
	C304.168091,485.214691 295.131439,485.034271 286.102936,484.968109 
	C284.316498,484.955048 282.532928,484.548248 280.367004,484.149353 
z"/>
<path fill="#8CDCFA" opacity="1.000000" stroke="none" 
	d="
M371.000000,477.001221 
	C352.262146,476.301636 333.524292,475.602020 314.314209,474.785095 
	C316.221069,473.840912 318.553680,472.489960 320.987000,472.273987 
	C334.660492,471.060425 348.358185,470.120209 362.513489,469.120605 
	C365.273224,470.097321 367.509277,471.231506 369.872284,471.945496 
	C375.830933,473.745819 381.846802,475.356812 387.533813,477.462921 
	C381.818604,477.588501 376.409302,477.294861 371.000000,477.001221 
z"/>
<path fill="#6ACEF6" opacity="1.000000" stroke="none" 
	d="
M110.766769,501.372131 
	C108.981110,501.876068 106.782059,502.240509 104.301582,502.369019 
	C106.131226,501.832977 108.242302,501.532776 110.766769,501.372131 
z"/>
<path fill="#4AC0F3" opacity="1.000000" stroke="none" 
	d="
M1308.450195,483.891174 
	C1311.636108,483.922668 1314.364746,483.976685 1317.545044,484.058838 
	C1322.550171,485.391174 1327.028442,487.200684 1331.672974,487.892426 
	C1340.794922,489.251007 1350.009399,489.987823 1359.526978,491.352905 
	C1356.257446,496.832336 1350.452026,495.271301 1345.684082,495.804291 
	C1331.869751,497.348602 1317.952637,497.952332 1304.090454,499.101837 
	C1300.365112,499.410736 1296.692139,500.349976 1292.995117,500.999817 
	C1291.611816,501.005035 1290.228516,501.010223 1287.975830,501.010162 
	C1285.460815,501.005585 1283.745728,500.706665 1282.183594,501.068024 
	C1278.742554,501.863983 1275.378784,502.993103 1271.983398,503.986267 
	C1271.237549,503.988525 1270.491699,503.990753 1269.081543,503.726013 
	C1265.485840,503.296173 1262.230347,501.340240 1259.986328,504.982208 
	C1253.613281,505.321075 1247.240234,505.659943 1240.125244,505.721710 
	C1233.587158,505.632172 1227.791138,505.819702 1221.995117,506.007233 
	C1220.932739,506.008514 1219.870239,506.009827 1217.940918,506.005737 
	C1209.779175,506.331573 1202.485352,506.925171 1195.189575,506.947235 
	C1168.106323,507.029175 1140.999512,507.715942 1114.040649,504.040314 
	C1100.926025,502.252197 1087.700684,501.178345 1074.656128,498.999603 
	C1061.395386,496.784698 1048.937622,491.317139 1034.765991,492.696136 
	C1018.097900,494.318054 1001.207703,493.616211 984.417053,494.048309 
	C980.117004,494.158966 975.829834,494.752655 971.535645,495.112366 
	C956.022400,496.411835 940.508667,497.706146 925.092773,498.631592 
	C930.909973,496.901672 936.629456,495.542572 942.348999,494.183472 
	C942.384094,493.740875 942.419250,493.298248 942.454407,492.855621 
	C939.704407,492.568329 936.859802,492.621826 934.232300,491.892975 
	C931.846130,491.231079 928.879333,490.233185 927.724121,488.402008 
	C926.929871,487.143066 928.763367,484.196960 929.480713,482.024231 
	C929.929321,480.665497 930.486572,479.342621 931.200073,477.872192 
	C931.608765,477.317993 931.812378,476.895264 932.015991,476.472534 
	C934.617432,476.241302 937.218933,476.010040 940.746826,475.854675 
	C953.110840,475.958038 964.548279,475.985474 976.354126,476.156128 
	C994.305725,479.534088 1011.864624,482.909760 1029.481079,485.952271 
	C1040.572021,487.867828 1051.703979,489.774475 1062.898560,490.807129 
	C1078.737183,492.268158 1094.639160,493.445770 1110.534790,493.790558 
	C1133.595825,494.290710 1156.675415,493.947510 1179.747070,493.913544 
	C1180.498779,493.912415 1181.249634,493.360779 1182.000977,493.065796 
	C1205.819946,491.448517 1229.644165,489.906128 1253.456055,488.189606 
	C1271.643188,486.878540 1289.814453,485.347076 1308.450195,483.891174 
z"/>
<path fill="#3CBAF2" opacity="1.000000" stroke="none" 
	d="
M1251.639160,534.136841 
	C1229.912354,532.731506 1208.621826,531.379333 1187.336670,529.944519 
	C1173.648926,529.021912 1159.933960,528.320190 1146.294922,526.904480 
	C1127.906128,524.995911 1109.581665,522.472229 1091.223022,520.266785 
	C1086.794067,519.734741 1082.339355,519.416504 1077.556396,518.612793 
	C1078.883301,517.816284 1080.565552,516.999939 1082.215210,517.061157 
	C1097.078125,517.613220 1111.930786,518.690796 1126.795532,518.872681 
	C1140.856445,519.044800 1154.928101,518.323975 1169.463867,517.997192 
	C1178.288330,517.665588 1186.644165,517.332764 1195.065674,517.337158 
	C1196.087524,518.115417 1197.043701,518.556458 1198.000000,518.997559 
	C1215.643555,521.535828 1232.897583,517.209656 1250.333618,516.067200 
	C1258.601562,515.525513 1266.901245,515.477783 1275.171875,514.967957 
	C1295.157471,513.736145 1315.130859,512.309692 1335.116943,511.089264 
	C1339.758667,510.805817 1344.431274,511.031708 1349.542969,511.405426 
	C1348.825562,515.156982 1345.391479,518.171143 1348.437744,522.253906 
	C1348.636719,522.520691 1347.494995,523.787781 1346.976807,524.589539 
	C1315.343750,527.778015 1283.710693,530.966492 1251.639160,534.136841 
z"/>
<path fill="#3BB1F2" opacity="1.000000" stroke="none" 
	d="
M924.995117,499.002441 
	C940.508667,497.706146 956.022400,496.411835 971.535645,495.112366 
	C975.829834,494.752655 980.117004,494.158966 984.417053,494.048309 
	C1001.207703,493.616211 1018.097900,494.318054 1034.765991,492.696136 
	C1048.937622,491.317139 1061.395386,496.784698 1074.656128,498.999603 
	C1087.700684,501.178345 1100.926025,502.252197 1114.040649,504.040314 
	C1140.999512,507.715942 1168.106323,507.029175 1195.189575,506.947235 
	C1202.485352,506.925171 1209.779175,506.331573 1217.542480,506.007751 
	C1216.703491,506.679962 1215.439209,507.455292 1214.079712,507.987671 
	C1210.755005,509.289581 1207.386353,510.479218 1204.035522,511.714050 
	C1204.178711,512.313965 1204.322021,512.913818 1204.465210,513.513733 
	C1207.068726,513.815308 1209.672241,514.116821 1212.275757,514.418396 
	C1212.295776,514.885742 1212.315674,515.353149 1212.335571,515.820496 
	C1208.458618,515.985718 1204.581543,516.150879 1200.098877,515.866150 
	C1194.990967,514.944153 1190.490479,514.111694 1185.985840,514.088806 
	C1179.990601,514.058350 1173.992188,514.658325 1167.541748,514.989502 
	C1159.468750,514.661621 1151.820435,514.632690 1144.238403,513.908997 
	C1137.916382,513.305542 1131.847778,514.781372 1125.186157,513.505981 
	C1111.462402,510.878479 1097.209595,511.023468 1083.176636,509.998535 
	C1069.722046,509.015930 1056.261597,508.099915 1042.819702,506.965027 
	C1028.645142,505.768341 1014.514465,503.765900 1000.320129,503.162354 
	C979.738892,502.287262 959.118164,502.325104 938.513245,502.047424 
	C935.643555,502.008789 932.710999,502.298248 931.646240,505.972748 
	C929.872742,505.637482 928.461182,505.344940 927.049683,505.052429 
	C918.859741,504.596069 911.500061,499.198151 902.574097,500.613037 
	C903.719177,499.817871 905.213806,499.090759 906.723816,499.057343 
	C912.811646,498.922638 918.904297,499.002075 924.995117,499.002441 
z"/>
<path fill="#32B6F5" opacity="1.000000" stroke="none" 
	d="
M1293.299072,501.272675 
	C1296.692139,500.349976 1300.365112,499.410736 1304.090454,499.101837 
	C1317.952637,497.952332 1331.869751,497.348602 1345.684082,495.804291 
	C1350.452026,495.271301 1356.257446,496.832336 1359.950195,491.373718 
	C1369.918335,491.020844 1379.807495,491.155121 1389.689209,490.947601 
	C1393.615967,490.865173 1397.526855,490.025177 1401.731689,489.249512 
	C1407.665894,489.987640 1413.343994,490.863037 1418.955444,492.052277 
	C1434.823730,495.415283 1450.664917,498.906830 1466.797729,502.578247 
	C1461.214600,503.192169 1455.337402,504.025574 1449.489258,503.856354 
	C1440.070190,503.583801 1430.669434,502.657867 1421.262573,501.987000 
	C1419.798828,501.882629 1418.343018,501.667053 1416.572266,501.467865 
	C1416.868042,502.522125 1417.108276,503.378357 1417.435547,504.545044 
	C1414.403076,504.350677 1411.525024,504.146240 1408.644531,503.985077 
	C1396.651245,503.314026 1384.664673,502.368073 1372.661865,502.056458 
	C1351.243042,501.500427 1329.814941,501.283386 1308.389526,501.034241 
	C1303.463257,500.976929 1298.531982,501.363342 1293.299072,501.272675 
z"/>
<path fill="#4AC0F3" opacity="1.000000" stroke="none" 
	d="
M1347.392822,524.692566 
	C1347.494995,523.787781 1348.636719,522.520691 1348.437744,522.253906 
	C1345.391479,518.171143 1348.825562,515.156982 1350.012451,511.419312 
	C1359.699341,511.046326 1369.369873,511.041687 1379.506104,511.052185 
	C1382.431396,512.369202 1384.846680,514.646851 1387.360840,514.761963 
	C1392.028687,514.975525 1395.107422,517.038147 1397.873291,520.773315 
	C1390.164917,521.670227 1382.304199,522.257996 1374.442749,522.838623 
	C1365.565063,523.494324 1356.686890,524.143555 1347.392822,524.692566 
z"/>
<path fill="#47B8F1" opacity="1.000000" stroke="none" 
	d="
M1167.995117,514.987488 
	C1173.992188,514.658325 1179.990601,514.058350 1185.985840,514.088806 
	C1190.490479,514.111694 1194.990967,514.944153 1199.746338,515.706909 
	C1199.218140,516.316162 1198.436890,516.634827 1197.002075,516.979126 
	C1195.898926,517.003174 1195.449463,517.001587 1195.000000,517.000000 
	C1186.644165,517.332764 1178.288330,517.665588 1169.434082,517.678772 
	C1168.622070,516.568604 1168.308594,515.778076 1167.995117,514.987488 
z"/>
<path fill="#3BB1F2" opacity="1.000000" stroke="none" 
	d="
M1222.102783,506.391479 
	C1227.791138,505.819702 1233.587158,505.632172 1239.691650,505.723389 
	C1234.131592,507.672913 1228.269653,509.491119 1222.102783,506.391479 
z"/>
<path fill="#32B6F5" opacity="1.000000" stroke="none" 
	d="
M1272.441406,503.992065 
	C1275.378784,502.993103 1278.742554,501.863983 1282.183594,501.068024 
	C1283.745728,500.706665 1285.460815,501.005585 1287.560913,501.015381 
	C1284.949585,502.012848 1281.929932,503.205383 1278.800537,503.909973 
	C1276.922119,504.332886 1274.872192,503.994232 1272.441406,503.992065 
z"/>
<path fill="#32B6F5" opacity="1.000000" stroke="none" 
	d="
M1260.426270,504.989288 
	C1262.230347,501.340240 1265.485840,503.296173 1268.708618,503.727875 
	C1266.288696,504.329956 1263.577515,504.663147 1260.426270,504.989288 
z"/>
<path fill="#3BB1F2" opacity="1.000000" stroke="none" 
	d="
M1195.065674,517.337158 
	C1195.449463,517.001587 1195.898926,517.003174 1196.686035,517.011658 
	C1197.275757,517.509094 1197.527954,517.999573 1197.890137,518.743774 
	C1197.043701,518.556458 1196.087524,518.115417 1195.065674,517.337158 
z"/>
<path fill="#32B6F5" opacity="1.000000" stroke="none" 
	d="
M1469.232788,503.356445 
	C1469.598877,503.258789 1470.160400,503.370819 1470.898926,503.722656 
	C1470.526611,503.830322 1469.977417,503.698242 1469.232788,503.356445 
z"/>
<path fill="#8CDCFA" opacity="1.000000" stroke="none" 
	d="
M1475.065918,504.249237 
	C1475.246094,504.063110 1475.507080,504.163696 1475.906982,504.458435 
	C1476.069336,504.591431 1475.593872,504.732666 1475.593872,504.732666 
	C1475.593872,504.732666 1475.170288,504.474762 1475.065918,504.249237 
z"/>
<path fill="#47B8F1" opacity="1.000000" stroke="none" 
	d="
M215.014572,522.058228 
	C216.807831,514.490662 210.966675,507.955017 203.506668,508.809937 
	C200.258118,509.182190 196.907562,508.664459 193.295319,508.276093 
	C198.378845,507.004852 203.770370,506.008423 209.687927,505.393219 
	C216.699463,508.552521 222.896652,505.996094 229.142838,504.671265 
	C229.529739,504.589203 229.720047,503.580170 230.001831,503.002441 
	C231.384720,502.996735 232.767624,502.991028 234.876434,503.264893 
	C237.243591,503.696320 238.897675,504.063568 240.524033,503.966522 
	C256.072723,503.038696 271.605133,501.597229 287.165649,501.183228 
	C300.104401,500.839020 313.098694,501.283508 326.025482,502.077209 
	C348.175171,503.437164 370.328613,504.970612 392.405060,507.183746 
	C402.695221,508.215302 412.808807,511.007996 422.731812,513.267822 
	C420.100952,514.022888 417.746552,514.878174 415.379181,514.915710 
	C411.901215,514.970764 410.704620,516.541687 410.618042,519.753052 
	C389.208130,518.190674 368.228424,515.845642 347.200562,515.273804 
	C324.781311,514.664124 302.309601,515.500610 279.874664,516.170288 
	C269.790192,516.471375 259.738495,517.891968 249.673569,518.822510 
	C238.119598,519.890686 226.567490,520.978821 215.014572,522.058228 
z"/>
<path fill="#4AC0F3" opacity="1.000000" stroke="none" 
	d="
M423.002441,513.002441 
	C412.808807,511.007996 402.695221,508.215302 392.405060,507.183746 
	C370.328613,504.970612 348.175171,503.437164 326.025482,502.077209 
	C313.098694,501.283508 300.104401,500.839020 287.165649,501.183228 
	C271.605133,501.597229 256.072723,503.038696 240.524033,503.966522 
	C238.897675,504.063568 237.243591,503.696320 235.291290,503.264221 
	C240.291656,501.992035 245.568359,500.712830 250.921478,500.065460 
	C263.708649,498.519073 276.518738,497.127441 289.344879,495.948669 
	C298.893585,495.071106 308.481903,494.624786 318.519104,493.981354 
	C329.343933,493.985413 339.702240,493.994537 350.950623,494.017517 
	C358.918427,494.688080 365.989716,495.428955 373.075867,495.976990 
	C379.682373,496.487976 386.309052,496.732880 392.919159,497.203461 
	C404.877533,498.054718 416.303497,502.170380 428.427216,502.533417 
	C435.945190,502.758514 443.390930,505.135498 450.885742,506.451935 
	C463.578522,508.681335 476.284424,510.835815 489.076630,513.374084 
	C491.111847,513.818298 493.055298,513.910217 495.398254,514.002319 
	C496.862732,514.005737 497.927704,514.008972 499.080475,514.366821 
	C501.289825,515.700867 503.411407,516.680298 505.449402,517.621094 
	C492.888428,517.621094 480.601105,518.209534 468.393921,517.471741 
	C453.228790,516.555237 438.129913,514.541992 423.002441,513.002441 
z"/>
<path fill="#4AC0F3" opacity="1.000000" stroke="none" 
	d="
M229.563568,503.001709 
	C229.720047,503.580170 229.529739,504.589203 229.142838,504.671265 
	C222.896652,505.996094 216.699463,508.552521 210.109894,505.393494 
	C216.379013,504.342010 222.752151,503.671478 229.563568,503.001709 
z"/>
<path fill="#47B8F1" opacity="1.000000" stroke="none" 
	d="
M161.556183,511.005798 
	C159.294739,511.669830 156.590866,512.333496 153.444717,512.998596 
	C155.706223,512.335144 158.410004,511.670319 161.556183,511.005798 
z"/>
<path fill="#47B8F1" opacity="1.000000" stroke="none" 
	d="
M190.574799,508.003784 
	C188.776535,511.675079 185.516815,509.701416 182.300293,509.276733 
	C184.722900,508.673309 187.435501,508.338623 190.574799,508.003784 
z"/>
<path fill="#47B8F1" opacity="1.000000" stroke="none" 
	d="
M170.573059,510.010010 
	C168.841171,510.516113 166.693375,511.021118 164.267914,511.264099 
	C166.045868,510.671051 168.101501,510.339996 170.573059,510.010010 
z"/>
<path fill="#47B8F1" opacity="1.000000" stroke="none" 
	d="
M179.588196,509.010345 
	C178.168701,509.513885 176.347839,510.016479 174.260208,510.260315 
	C175.724564,509.670837 177.455704,509.340118 179.588196,509.010345 
z"/>
<path fill="#47B8F1" opacity="1.000000" stroke="none" 
	d="
M143.386444,513.984131 
	C142.994873,513.543396 142.996094,513.108704 142.996628,512.348328 
	C144.385666,512.016663 145.775375,512.010742 147.581818,512.006104 
	C146.592102,512.668335 145.185669,513.329346 143.386444,513.984131 
z"/>
<path fill="#8CDCFA" opacity="1.000000" stroke="none" 
	d="
M214.639511,522.117126 
	C226.567490,520.978821 238.119598,519.890686 249.673569,518.822510 
	C259.738495,517.891968 269.790192,516.471375 279.874664,516.170288 
	C302.309601,515.500610 324.781311,514.664124 347.200562,515.273804 
	C368.228424,515.845642 389.208130,518.190674 411.043762,519.830566 
	C415.587830,520.266724 419.297180,520.627625 423.006531,520.988525 
	C424.645721,521.662109 426.284912,522.335693 428.092529,523.297852 
	C425.144318,523.390198 422.029266,523.055969 418.910767,523.019165 
	C387.825775,522.652039 356.738861,521.995300 325.655273,522.117249 
	C303.750885,522.203186 281.853668,523.486450 259.947815,524.008118 
	C242.858826,524.414978 225.761520,524.472656 208.347641,524.434082 
	C210.106400,523.513794 212.185425,522.844910 214.639511,522.117126 
z"/>
<path fill="#3CBAF2" opacity="1.000000" stroke="none" 
	d="
M423.301849,520.717529 
	C419.297180,520.627625 415.587830,520.266724 411.452759,519.828186 
	C410.704620,516.541687 411.901215,514.970764 415.379181,514.915710 
	C417.746552,514.878174 420.100952,514.022888 422.731812,513.267822 
	C438.129913,514.541992 453.228790,516.555237 468.393921,517.471741 
	C480.601105,518.209534 492.888428,517.621094 505.449402,517.621094 
	C503.411407,516.680298 501.289825,515.700867 499.419434,514.361023 
	C500.122620,513.991333 500.574677,513.982056 501.466919,513.976501 
	C514.954773,515.826172 527.982727,517.828796 541.054932,519.480469 
	C559.351013,521.792236 577.680115,523.842651 596.072266,526.356201 
	C596.616577,527.130920 597.036682,527.850037 597.558105,527.933044 
	C604.315979,529.008789 611.102295,529.911560 617.848816,531.050842 
	C619.950134,531.405701 621.953796,532.338928 624.002136,533.007324 
	C618.944641,533.259827 613.858887,533.972961 608.835693,533.665405 
	C599.445435,533.090454 590.102539,531.784424 580.720032,531.030518 
	C559.292358,529.308716 537.849854,527.772888 516.419006,526.089844 
	C504.219971,525.131775 492.032257,524.030029 479.839081,522.997192 
	C468.308990,522.020447 456.792267,520.790955 445.242920,520.170471 
	C438.053375,519.784119 430.814117,520.322876 423.301849,520.717529 
z"/>
<path fill="#32B6F5" opacity="1.000000" stroke="none" 
	d="
M624.470581,533.006226 
	C621.953796,532.338928 619.950134,531.405701 617.848816,531.050842 
	C611.102295,529.911560 604.315979,529.008789 597.558105,527.933044 
	C597.036682,527.850037 596.616577,527.130920 596.484741,526.340698 
	C602.254700,523.947876 607.110657,526.000671 612.255066,527.591919 
	C615.410767,528.568054 619.156128,527.816772 622.614075,527.548584 
	C624.008911,527.440491 625.349609,526.073242 626.704041,526.091431 
	C638.995667,526.256775 651.283875,526.664673 663.575317,526.865295 
	C668.887756,526.951965 674.207825,526.791199 679.520020,526.610596 
	C684.718079,526.433716 689.911438,526.105164 695.105164,525.813354 
	C702.703186,525.386475 711.105957,526.819519 717.689819,524.006042 
	C725.647095,520.605652 733.556763,521.251587 741.429810,520.165710 
	C751.254333,518.810608 761.248596,518.720032 771.152466,517.882446 
	C773.725525,517.664856 776.298035,516.880310 778.758850,516.031555 
	C782.255920,514.825562 785.543274,512.642700 789.109436,512.083557 
	C796.286560,510.958221 803.591980,510.652161 810.843628,509.999176 
	C817.104797,509.435364 823.381653,509.000214 829.622070,508.259949 
	C843.731873,506.586212 857.834900,504.841370 871.908325,502.891968 
	C873.701965,502.643524 875.302612,501.001160 877.407898,500.004272 
	C881.057739,500.035461 884.399414,499.571686 887.496277,500.240753 
	C890.463074,500.881653 893.175659,502.698669 896.000000,503.998779 
	C885.306152,505.056610 874.582764,505.883453 863.927551,507.244171 
	C855.153320,508.364624 846.485168,510.298035 837.721680,511.526855 
	C831.998779,512.329346 826.175903,512.388000 820.422058,513.005798 
	C808.595703,514.275635 796.733337,515.352417 784.981384,517.138306 
	C768.013062,519.716858 751.090698,522.647461 734.220642,525.810913 
	C716.192810,529.191467 698.196045,532.207764 679.734192,532.102722 
	C661.471436,531.998779 643.204224,532.672546 624.470581,533.006226 
z"/>
<path fill="#3CBAF2" opacity="1.000000" stroke="none" 
	d="
M896.380127,503.998962 
	C893.175659,502.698669 890.463074,500.881653 887.496277,500.240753 
	C884.399414,499.571686 881.057739,500.035461 876.943054,500.003815 
	C868.114258,499.685516 860.156006,498.959229 852.219116,499.146057 
	C840.637512,499.418762 829.074585,500.424347 817.494751,500.901855 
	C816.011902,500.962952 814.475708,499.731201 813.304565,498.926819 
	C820.596802,496.814270 827.592468,495.014679 834.483643,492.877869 
	C838.441528,491.650574 842.229980,489.876556 846.094666,488.348663 
	C848.108826,488.245087 850.122986,488.141510 852.666992,488.409058 
	C859.037842,490.135773 865.115112,493.257355 870.675476,492.513733 
	C886.957703,490.336304 903.272949,487.688049 918.609558,481.086182 
	C922.465820,479.426208 926.852295,478.997955 930.995117,478.003632 
	C930.486572,479.342621 929.929321,480.665497 929.480713,482.024231 
	C928.763367,484.196960 926.929871,487.143066 927.724121,488.402008 
	C928.879333,490.233185 931.846130,491.231079 934.232300,491.892975 
	C936.859802,492.621826 939.704407,492.568329 942.454407,492.855621 
	C942.419250,493.298248 942.384094,493.740875 942.348999,494.183472 
	C936.629456,495.542572 930.909973,496.901672 925.092773,498.631592 
	C918.904297,499.002075 912.811646,498.922638 906.723816,499.057343 
	C905.213806,499.090759 903.719177,499.817871 902.108765,500.612488 
	C900.253418,501.998932 898.506836,502.999054 896.380127,503.998962 
z"/>
<path fill="#6ACEF6" opacity="1.000000" stroke="none" 
	d="
M926.948608,505.409546 
	C928.461182,505.344940 929.872742,505.637482 932.042358,506.035828 
	C946.609131,509.442078 960.439392,512.656006 974.209656,516.109558 
	C977.270508,516.877197 980.119690,518.488831 983.066345,519.711853 
	C975.984375,519.097290 968.901672,518.490601 961.820496,517.866394 
	C946.780640,516.540710 931.741150,515.210693 916.703186,513.863464 
	C915.718201,513.775208 914.747742,513.526428 913.390381,513.189697 
	C912.780090,508.632355 916.344910,508.859436 919.063904,508.057678 
	C921.658020,507.292694 924.252869,506.530182 926.948608,505.409546 
z"/>
<path fill="#6ACEF6" opacity="1.000000" stroke="none" 
	d="
M901.671570,512.636475 
	C897.637512,512.938660 893.281555,512.991333 888.464539,512.986572 
	C892.452209,512.748352 896.900940,512.567688 901.671570,512.636475 
z"/>
<path fill="#6ACEF6" opacity="1.000000" stroke="none" 
	d="
M907.846069,512.753845 
	C907.554749,512.980103 907.107300,513.007202 906.327942,512.975830 
	C906.560669,512.796448 907.125305,512.675537 907.846069,512.753845 
z"/>
<path fill="#4AC0F3" opacity="1.000000" stroke="none" 
	d="
M983.456299,519.796997 
	C980.119690,518.488831 977.270508,516.877197 974.209656,516.109558 
	C960.439392,512.656006 946.609131,509.442078 932.404358,506.078613 
	C932.710999,502.298248 935.643555,502.008789 938.513245,502.047424 
	C959.118164,502.325104 979.738892,502.287262 1000.320129,503.162354 
	C1014.514465,503.765900 1028.645142,505.768341 1042.819702,506.965027 
	C1056.261597,508.099915 1069.722046,509.015930 1083.176636,509.998535 
	C1097.209595,511.023468 1111.462402,510.878479 1125.186157,513.505981 
	C1131.847778,514.781372 1137.916382,513.305542 1144.238403,513.908997 
	C1151.820435,514.632690 1159.468750,514.661621 1167.541748,514.989502 
	C1168.308594,515.778076 1168.622070,516.568604 1168.965332,517.677490 
	C1154.928101,518.323975 1140.856445,519.044800 1126.795532,518.872681 
	C1111.930786,518.690796 1097.078125,517.613220 1082.215210,517.061157 
	C1080.565552,516.999939 1078.883301,517.816284 1077.108154,518.612854 
	C1066.297241,518.016846 1055.607666,516.811523 1044.884155,516.177856 
	C1041.396606,515.971802 1037.656982,516.789307 1034.316406,517.953369 
	C1025.078247,521.172485 1015.902527,523.095947 1006.198730,520.012268 
	C1004.329712,519.418335 1002.094482,519.887512 1000.035889,520.003845 
	C997.808899,520.129822 995.591003,520.416870 993.138550,520.895874 
	C991.817383,520.943909 990.726685,520.729858 989.207275,520.112305 
	C988.196289,519.768433 987.614136,519.828064 987.031921,519.887695 
	C985.970032,519.885803 984.908203,519.883972 983.456299,519.796997 
z"/>
<path fill="#51C0F3" opacity="1.000000" stroke="none" 
	d="
M987.359619,519.985718 
	C987.614136,519.828064 988.196289,519.768433 988.915283,519.943726 
	C988.597107,520.146973 988.142151,520.115356 987.359619,519.985718 
z"/>
<path fill="#8CDCFA" opacity="1.000000" stroke="none" 
	d="
M1181.738403,492.783325 
	C1181.249634,493.360779 1180.498779,493.912415 1179.747070,493.913544 
	C1156.675415,493.947510 1133.595825,494.290710 1110.534790,493.790558 
	C1094.639160,493.445770 1078.737183,492.268158 1062.898560,490.807129 
	C1051.703979,489.774475 1040.572021,487.867828 1029.481079,485.952271 
	C1011.864624,482.909760 994.305725,479.534088 976.353577,475.740997 
	C975.980103,473.804504 975.975525,472.426300 975.971008,471.048157 
	C979.929199,470.703247 983.883728,470.120819 987.846313,470.059662 
	C998.161682,469.900543 1008.482849,470.101929 1018.797607,469.922424 
	C1043.929932,469.485016 1068.841187,471.937714 1093.537476,476.210327 
	C1122.910522,481.292023 1152.168213,487.041016 1181.738403,492.783325 
z"/>
<path fill="#6ACEF6" opacity="1.000000" stroke="none" 
	d="
M845.765076,488.107544 
	C842.229980,489.876556 838.441528,491.650574 834.483643,492.877869 
	C827.592468,495.014679 820.596802,496.814270 812.917053,498.965210 
	C786.434998,505.020325 760.342346,508.420471 733.529053,509.985779 
	C719.436340,510.311005 705.811096,510.951691 692.187683,510.914337 
	C671.231567,510.856873 650.275940,510.374847 629.321533,509.994507 
	C614.696350,509.729065 600.059814,509.590973 585.458618,508.821320 
	C581.574463,508.616577 577.801819,506.294952 573.977966,504.945251 
	C581.540588,503.631958 589.110596,502.359253 596.663330,500.991364 
	C601.833557,500.054962 606.979675,498.985931 612.552368,497.936890 
	C624.335754,498.600525 635.703369,499.303497 647.535522,500.004608 
	C654.817871,500.995972 661.613037,502.614838 668.457886,502.862335 
	C687.239563,503.541443 706.051697,504.178192 724.833740,503.837555 
	C747.233032,503.431305 769.615784,502.038910 792.000854,500.971954 
	C798.771301,500.649231 803.097229,493.501099 800.219055,487.505554 
	C798.713623,484.369659 798.384705,481.519623 800.946411,478.418945 
	C812.639404,480.536682 824.250916,482.983856 835.848877,485.493347 
	C839.065002,486.189270 842.241028,487.070343 845.765076,488.107544 
z"/>
<path fill="#51C0F3" opacity="1.000000" stroke="none" 
	d="
M931.200073,477.872192 
	C926.852295,478.997955 922.465820,479.426208 918.609558,481.086182 
	C903.272949,487.688049 886.957703,490.336304 870.675476,492.513733 
	C865.115112,493.257355 859.037842,490.135773 853.101074,488.410797 
	C863.619568,485.743866 874.145813,482.833771 884.868896,481.295166 
	C900.233398,479.090576 915.741638,477.887421 931.602295,476.364624 
	C931.812378,476.895264 931.608765,477.317993 931.200073,477.872192 
z"/>
<path fill="#6ACEF6" opacity="1.000000" stroke="none" 
	d="
M975.529785,471.036407 
	C975.975525,472.426300 975.980103,473.804504 975.985229,475.597778 
	C964.548279,475.985474 953.110840,475.958038 941.179077,475.845642 
	C944.360413,474.526459 947.962524,472.602783 951.726746,472.202148 
	C959.468079,471.378357 967.296204,471.369171 975.529785,471.036407 
z"/>
<path fill="#4AC0F3" opacity="1.000000" stroke="none" 
	d="
M370.999420,477.373840 
	C376.409302,477.294861 381.818604,477.588501 387.662781,477.796631 
	C400.113647,480.187561 412.129639,482.664001 424.553497,485.130066 
	C439.039368,489.070679 453.117340,493.021698 467.845337,497.254395 
	C475.009308,499.332672 481.523224,501.129303 487.742004,503.213287 
	C477.958099,502.494141 468.462067,501.549347 458.986328,500.432281 
	C456.935577,500.190552 454.900757,499.475861 452.959961,498.719025 
	C450.090912,497.600220 447.427429,495.704010 444.477539,495.082184 
	C420.016846,489.925903 395.510315,484.986908 371.017670,479.982208 
	C371.011414,479.236938 371.005127,478.491699 370.999420,477.373840 
z"/>
<path fill="#9EE1FA" opacity="1.000000" stroke="none" 
	d="
M488.037170,502.925903 
	C481.523224,501.129303 475.009308,499.332672 468.247375,497.267456 
	C476.065491,497.284210 484.131592,497.569550 492.614685,497.913940 
	C492.670898,499.482788 492.310059,500.992523 491.531494,502.831482 
	C490.088226,503.082458 489.062714,503.004181 488.037170,502.925903 
z"/>
<path fill="#29ABF3" opacity="1.000000" stroke="none" 
	d="
M733.997375,509.997437 
	C760.342346,508.420471 786.434998,505.020325 812.576721,499.136780 
	C814.475708,499.731201 816.011902,500.962952 817.494751,500.901855 
	C829.074585,500.424347 840.637512,499.418762 852.219116,499.146057 
	C860.156006,498.959229 868.114258,499.685516 876.527832,500.004089 
	C875.302612,501.001160 873.701965,502.643524 871.908325,502.891968 
	C857.834900,504.841370 843.731873,506.586212 829.622070,508.259949 
	C823.381653,509.000214 817.104797,509.435364 810.843628,509.999176 
	C803.591980,510.652161 796.286560,510.958221 789.109436,512.083557 
	C785.543274,512.642700 782.255920,514.825562 778.758850,516.031555 
	C776.298035,516.880310 773.725525,517.664856 771.152466,517.882446 
	C761.248596,518.720032 751.254333,518.810608 741.429810,520.165710 
	C733.556763,521.251587 725.647095,520.605652 717.689819,524.006042 
	C711.105957,526.819519 702.703186,525.386475 695.105164,525.813354 
	C689.911438,526.105164 684.718079,526.433716 679.520020,526.610596 
	C674.207825,526.791199 668.887756,526.951965 663.575317,526.865295 
	C651.283875,526.664673 638.995667,526.256775 626.704041,526.091431 
	C625.349609,526.073242 624.008911,527.440491 622.614075,527.548584 
	C619.156128,527.816772 615.410767,528.568054 612.255066,527.591919 
	C607.110657,526.000671 602.254700,523.947876 596.407654,525.989441 
	C577.680115,523.842651 559.351013,521.792236 541.054932,519.480469 
	C527.982727,517.828796 514.954773,515.826172 501.449493,513.604248 
	C499.993408,510.463196 498.994934,507.698181 497.996460,504.933167 
	C498.449554,504.939453 498.902649,504.945770 499.877625,505.235840 
	C500.762543,505.627869 501.125549,505.736084 501.488525,505.844299 
	C502.752594,505.874115 504.016632,505.903931 505.840515,506.224792 
	C506.761932,506.624237 507.123535,506.732635 507.485168,506.841034 
	C511.378632,507.181854 515.272095,507.522675 519.854187,508.161530 
	C524.363525,508.960236 528.184204,509.460938 532.191956,510.199585 
	C532.953125,510.543243 533.527222,510.648987 534.406250,510.783813 
	C535.118713,510.818604 535.526123,510.824249 536.345337,510.892700 
	C542.674683,511.681519 548.575745,512.609375 554.513000,513.095276 
	C571.530823,514.487793 588.545532,516.329346 605.594788,516.808716 
	C622.704163,517.289795 639.861816,516.571411 656.983582,515.964294 
	C679.052551,515.181702 701.113220,514.099060 723.161377,512.859497 
	C726.815491,512.654053 730.387451,510.988312 733.997375,509.997437 
z"/>
<path fill="#32B6F5" opacity="1.000000" stroke="none" 
	d="
M497.673401,504.771027 
	C498.994934,507.698181 499.993408,510.463196 501.009308,513.600464 
	C500.574677,513.982056 500.122620,513.991333 499.331604,514.006348 
	C497.927704,514.008972 496.862732,514.005737 495.121460,513.736206 
	C492.625061,513.320496 490.804932,513.171143 488.984833,513.021790 
	C476.284424,510.835815 463.578522,508.681335 450.885742,506.451935 
	C443.390930,505.135498 435.945190,502.758514 428.427216,502.533417 
	C416.303497,502.170380 404.877533,498.054718 392.919159,497.203461 
	C386.309052,496.732880 379.682373,496.487976 373.075867,495.976990 
	C365.989716,495.428955 358.918427,494.688080 351.419128,494.016296 
	C349.896851,486.298096 356.949677,479.082367 364.701324,479.901825 
	C366.495819,480.091553 368.323029,479.971741 370.576416,479.988281 
	C395.510315,484.986908 420.016846,489.925903 444.477539,495.082184 
	C447.427429,495.704010 450.090912,497.600220 452.959961,498.719025 
	C454.900757,499.475861 456.935577,500.190552 458.986328,500.432281 
	C468.462067,501.549347 477.958099,502.494141 487.742004,503.213287 
	C489.062714,503.004181 490.088226,503.082458 491.493896,503.220642 
	C493.699493,503.723297 495.524933,504.166107 497.673401,504.771027 
z"/>
<path fill="#51C0F3" opacity="1.000000" stroke="none" 
	d="
M733.529053,509.985779 
	C730.387451,510.988312 726.815491,512.654053 723.161377,512.859497 
	C701.113220,514.099060 679.052551,515.181702 656.983582,515.964294 
	C639.861816,516.571411 622.704163,517.289795 605.594788,516.808716 
	C588.545532,516.329346 571.530823,514.487793 554.513000,513.095276 
	C548.575745,512.609375 542.674683,511.681519 536.484009,510.535553 
	C538.351562,509.741425 540.527466,509.500702 542.621277,508.948639 
	C544.147888,508.546112 545.566406,507.733124 547.033081,507.103149 
	C548.737122,507.059967 550.441162,507.016785 552.767456,507.217590 
	C554.286072,507.074249 555.182556,506.686920 556.078979,506.299622 
	C558.749512,506.182373 561.420044,506.065125 564.697266,506.157593 
	C565.896118,506.006561 566.488220,505.645782 567.080383,505.284973 
	C569.091736,505.175476 571.103027,505.065979 573.546143,504.950867 
	C577.801819,506.294952 581.574463,508.616577 585.458618,508.821320 
	C600.059814,509.590973 614.696350,509.729065 629.321533,509.994507 
	C650.275940,510.374847 671.231567,510.856873 692.187683,510.914337 
	C705.811096,510.951691 719.436340,510.311005 733.529053,509.985779 
z"/>
<path fill="#6ACEF6" opacity="1.000000" stroke="none" 
	d="
M546.563538,507.053528 
	C545.566406,507.733124 544.147888,508.546112 542.621277,508.948639 
	C540.527466,509.500702 538.351562,509.741425 536.072266,510.472717 
	C535.526123,510.824249 535.118713,510.818604 534.333435,510.532288 
	C533.305359,510.154968 532.655151,510.058319 532.004883,509.961639 
	C528.184204,509.460938 524.363525,508.960236 520.271851,508.166870 
	C526.713623,507.582336 533.425598,507.270813 540.139526,507.010712 
	C542.121460,506.933929 544.109009,507.002167 546.563538,507.053528 
z"/>
<path fill="#6ACEF6" opacity="1.000000" stroke="none" 
	d="
M555.746094,506.220337 
	C555.182556,506.686920 554.286072,507.074249 553.193604,507.224915 
	C553.802734,506.705872 554.608032,506.423462 555.746094,506.220337 
z"/>
<path fill="#6ACEF6" opacity="1.000000" stroke="none" 
	d="
M566.788574,505.225464 
	C566.488220,505.645782 565.896118,506.006561 565.144531,506.150330 
	C565.489014,505.677521 565.992920,505.421722 566.788574,505.225464 
z"/>
<path fill="#32B6F5" opacity="1.000000" stroke="none" 
	d="
M501.297241,505.627441 
	C501.125549,505.736084 500.762543,505.627869 500.210907,505.306152 
	C500.383514,505.198639 500.744720,505.304626 501.297241,505.627441 
z"/>
<path fill="#32B6F5" opacity="1.000000" stroke="none" 
	d="
M507.295837,506.623779 
	C507.123535,506.732635 506.761932,506.624237 506.213684,506.301758 
	C506.386841,506.193970 506.746674,506.300232 507.295837,506.623779 
z"/>
<path fill="#3CBAF2" opacity="1.000000" stroke="none" 
	d="
M489.076630,513.374084 
	C490.804932,513.171143 492.625061,513.320496 494.721924,513.735962 
	C493.055298,513.910217 491.111847,513.818298 489.076630,513.374084 
z"/>
<path fill="#51C0F3" opacity="1.000000" stroke="none" 
	d="
M532.191956,510.199585 
	C532.655151,510.058319 533.305359,510.154968 534.028442,510.503174 
	C533.527222,510.648987 532.953125,510.543243 532.191956,510.199585 
z"/>
</svg>